<svg width="200" height="158" viewBox="0 0 200 158" fill="none" xmlns="http://www.w3.org/2000/svg">
    <path d="M200 33.7014C200 27.2795 194.794 22.0735 188.372 22.0735H89.5349L74.4146 4.13409C72.2053 1.51278 68.9518 0 65.5236 0H11.6279C5.206 0 0 5.20599 0 11.6279V36.0147L0 45.3088C0 39.5 3.48837 36.0147 9.30233 36.0147H72.093V36.0147C76.5604 36.0147 80.845 34.2411 84.0052 31.0836L88.3721 26.7206H190.698C197.674 26.7206 200 30.2059 200 37.1765V33.7014Z" fill="#FCBC19" />
    <path d="M0 146.372C0 152.794 5.20599 158 11.6279 158H188.372C194.794 158 200 152.794 200 146.372V37.1765C200 30.2059 197.674 26.7206 190.698 26.7206H88.3721L84.0052 31.0836C80.845 34.2411 76.5604 36.0147 72.093 36.0147V36.0147H9.30233C3.48837 36.0147 0 39.5 0 45.3088L0 146.372Z" fill="url(#paint0_linear_3_16)" />
    <circle cx="100" cy="95.3488" r="58.1395" fill="white" fill-opacity="0.2" />
    <path d="M80.236 92.3055C73.9949 93.472 67.4318 98.5668 64.9016 106.165C64.8372 106.358 64.9524 106.568 65.1547 106.594C67.6611 106.914 69.3066 103.602 70.7304 102.744C70.9227 102.628 71.1365 102.78 71.1389 103.005C71.2134 110.003 63.8251 117.759 62.8055 121.133C61.7697 124.561 65.4356 135.211 71.8285 145.086C71.8845 145.173 71.976 145.231 72.0781 145.245C73.8709 145.487 74.4436 145.255 74.934 144.638C75.0292 144.518 75.023 144.346 74.933 144.223C67.6686 134.228 67.6511 128.456 67.9497 125.145C67.9535 125.103 67.9649 125.063 67.9833 125.024C70.325 120.177 74.3174 116.391 80.236 115.605C82.1755 115.347 83.7773 115.299 85.3859 115.366C88.6994 115.504 92.0414 116.126 98.4216 116.393C98.4458 116.394 98.4706 116.397 98.494 116.403C101.133 117.095 102.864 121.406 103.609 124.687C104.354 127.973 104.797 135.8 104.405 142.399C104.402 142.438 104.407 142.478 104.417 142.516C104.916 144.301 105.354 144.883 106.343 145.21C106.368 145.218 106.396 145.224 106.423 145.226C107.55 145.311 108.047 144.951 108.618 143.91C108.701 143.757 108.654 143.569 108.533 143.444C106.562 141.423 107.179 133.903 107.174 125.926C107.174 125.89 107.179 125.855 107.19 125.82L108.443 121.76C108.544 121.432 109.014 121.418 109.142 121.737C109.634 122.957 110.089 123.952 110.343 125.477C111.127 131.341 110.747 141.461 111.508 143.58C111.524 143.625 111.549 143.66 111.582 143.694C112.469 144.596 112.902 144.949 113.457 145.198C113.494 145.214 113.533 145.224 113.573 145.226C114.659 145.296 115.115 145.015 115.413 143.958C115.464 143.781 115.357 143.601 115.22 143.478C113.189 141.654 113.901 127.571 113.908 117.726C113.909 117.631 113.946 117.542 114.013 117.475C117.551 113.91 121.447 108.067 122.624 104.547C123.812 100.993 124.992 96.7059 125.001 91.1208C124.569 86.0021 124.182 83.6557 121.155 77.5331C121.087 77.3951 121.113 77.2257 121.222 77.117C123.105 75.2404 124.616 73.7283 125.839 71.4086C126.139 70.8386 125.554 70.2651 124.969 70.5339C123.751 71.0928 122.852 71.485 121.873 71.663C121.52 71.7271 121.381 71.2978 121.68 71.0996C128.535 66.5526 136.179 59.275 133.716 52.8153C132.527 49.6561 129.754 46.8918 128.962 47.6816C128.206 48.4356 133.226 54.5884 130.581 58.5806C130.419 58.8238 130.061 58.7367 129.991 58.4535C129.628 56.9888 128.701 53.6919 127.774 54C126.595 54.3918 128.5 57.7528 128.178 62.5726C128.173 62.647 128.144 62.7195 128.096 62.7767C126.62 64.5387 125.703 65.2417 124.329 65.9748C124.094 66.1002 123.814 65.9266 123.823 65.6602C123.878 64.1023 124.084 63.3951 123.02 62.6878C121.831 61.898 122.624 66.6369 122.228 67.4267C121.842 68.195 117.927 71.0875 115.313 71.3591C115.18 71.3729 115.054 71.3031 114.989 71.1864C114.222 69.8047 114.075 68.8099 113.908 68.2165C113.738 67.61 107.485 67.8278 104.962 64.4983C104.862 64.366 104.734 64.179 104.723 64.0133C104.652 62.8939 105.033 58.4762 104.005 58.3439C103.084 58.2254 102.877 61.1372 102.83 62.4532C102.82 62.7309 102.514 62.8994 102.285 62.7423C96.8975 59.0488 97.2459 51.6063 96.478 50.8408C95.7103 50.0754 93.4544 53.0185 96.5602 59.3108C96.6884 59.5705 96.4778 59.8771 96.1885 59.863C94.9769 59.8041 94.1094 60.0445 94.4689 60.7133C94.8935 61.5031 96.0819 62.6878 98.0626 62.6878C100.04 62.6878 103.203 67.8059 109.128 69.0008C109.145 69.0044 109.164 69.0096 109.181 69.0159C111.354 69.8116 112.149 70.4649 112.503 71.5317C112.61 71.8561 112.151 72.1308 111.836 71.9981C111.532 71.8699 111.161 71.7706 110.739 71.7706C109.647 71.7706 107.771 71.6128 106.35 71.4258C106.15 71.3995 105.965 71.5429 105.954 71.7443C105.819 74.0689 107.135 74.8495 110.302 75.6163C110.525 75.6703 110.646 75.9175 110.548 76.1251C110.288 76.6756 110.034 77.1498 109.551 77.2992C103.645 79.2617 101.261 81.6144 105.9 84.3572C105.954 84.3893 106.019 84.4074 106.082 84.4074H113.379C113.633 84.4074 113.805 84.6649 113.71 84.8995C112.249 88.4932 111.329 90.0538 106.778 92.7004C96.478 93.8851 86.5744 91.1208 80.236 92.3055Z" fill="#A57001" />
    <path d="M80.236 115.605C76.0284 116.164 72.7943 118.239 70.4347 121.133C65.9747 127.847 73.8977 136.534 76.2745 142.458C76.6491 143.952 76.6739 144.936 77.341 145.186C77.4201 145.216 77.5072 145.223 77.5916 145.222C79.8399 145.193 79.8399 144.425 79.8399 144.038C79.8399 143.643 79.9735 143.514 79.0476 141.668C78.1217 139.822 73.8977 133.375 73.8977 127.847C73.9542 124.77 78.6282 121.642 85.3859 115.366C83.7773 115.299 82.1755 115.347 80.236 115.605Z" fill="#A57001" />
    <defs>
        <linearGradient id="paint0_linear_3_16" x1="-2.41306e-06" y1="37.1765" x2="199.905" y2="158.156" gradientUnits="userSpaceOnUse">
            <stop stop-color="#FFE8A6" />
            <stop offset="1" stop-color="#FFC937" />
        </linearGradient>
    </defs>
</svg>